<svg width="315" height="37" viewBox="0 0 315 37" fill="none" xmlns="http://www.w3.org/2000/svg">
<path d="M5.01562 14.1875C4.95312 14.8958 4.92188 15.9062 4.92188 17.2188C4.92188 18.5104 5.11979 20.0833 5.51562 21.9375L3.04688 23.1875L1.92188 14.6875C1.19271 14.5833 0.828125 14.3333 0.828125 13.9375C0.828125 13.6458 0.994792 13.3021 1.32812 12.9062C1.68229 12.5104 1.94271 12.1875 2.10938 11.9375C2.27604 11.6667 2.36979 11.375 2.39062 11.0625C2.43229 10.7292 2.48438 10.1458 2.54688 9.3125C2.60938 8.47917 2.66146 7.59375 2.70312 6.65625C2.76562 5.71875 2.81771 4.83333 2.85938 4C2.92188 3.16667 2.95312 2.58333 2.95312 2.25C3.41146 1.79167 3.74479 1.51042 3.95312 1.40625C4.47396 1.13542 4.82812 1.23958 5.01562 1.71875L4.82812 11.5625C9.97396 11.5625 13.0677 11.2292 14.1094 10.5625V0.6875C14.2344 0.333333 14.8177 0.15625 15.8594 0.15625C16.0885 0.15625 16.276 0.166667 16.4219 0.1875C16.4219 0.583333 16.4323 1.1875 16.4531 2C16.4948 2.79167 16.526 3.69792 16.5469 4.71875C16.5885 5.73958 16.6302 6.82292 16.6719 7.96875C16.7135 9.09375 16.7552 10.1667 16.7969 11.1875C16.8594 13.3125 16.9115 14.875 16.9531 15.875C17.099 18.375 17.6094 20.3958 18.4844 21.9375C17.5469 22.3125 16.5156 22.5 15.3906 22.5C14.4323 20.125 13.9219 17.0104 13.8594 13.1562C12.4844 13.1146 11.5469 13.0938 11.0469 13.0938C10.5469 13.0938 9.98438 13.125 9.35938 13.1875C8.06771 13.2708 6.61979 13.6042 5.01562 14.1875ZM21.1719 17.0625C21.1719 14.6042 22.2344 12.625 24.3594 11.125C26.0469 9.9375 28.0781 9.21875 30.4531 8.96875C30.5781 8.96875 30.8698 8.96875 31.3281 8.96875C31.7865 8.96875 32.401 9.10417 33.1719 9.375C34.8802 9.95833 36.0469 10.9896 36.6719 12.4688C36.9219 13.0521 37.0469 13.5521 37.0469 13.9688C37.0469 14.3646 37.0365 14.6458 37.0156 14.8125C37.0156 17.4167 36.026 19.4688 34.0469 20.9688C32.2135 22.3438 29.9219 23.0312 27.1719 23.0312C25.1927 23.0312 23.6927 22.5729 22.6719 21.6562C21.6719 20.7396 21.1719 19.2083 21.1719 17.0625ZM23.3281 17.8125C23.3281 19.1042 23.6719 19.9792 24.3594 20.4375C24.8802 20.7708 25.7552 20.9375 26.9844 20.9375C28.2135 20.9375 29.2969 20.8438 30.2344 20.6562C31.1719 20.4688 32.0052 20.1458 32.7344 19.6875C34.2969 18.6875 35.0781 17.1354 35.0781 15.0312C35.0781 13.7812 34.7448 12.7604 34.0781 11.9688C33.349 11.1146 32.3906 10.6875 31.2031 10.6875C30.3906 10.8333 29.5677 10.9896 28.7344 11.1562C27.9219 11.3229 27.151 11.6458 26.4219 12.125C24.8385 13.1458 23.8073 15.0417 23.3281 17.8125ZM50.2656 14.375C49.8073 15.8958 49.4219 17.3021 49.1094 18.5938C48.8177 19.8854 48.526 20.9583 48.2344 21.8125C47.776 23.0417 47.2552 23.6562 46.6719 23.6562C46.3594 23.6562 46.0052 23.5104 45.6094 23.2188C44.651 22.1979 43.2969 19.9375 41.5469 16.4375C39.8385 13.0208 38.9844 10.8854 38.9844 10.0312C38.9844 9.65625 39.099 9.42708 39.3281 9.34375C39.5573 9.23958 39.8177 9.22917 40.1094 9.3125C40.8177 9.52083 41.3177 9.84375 41.6094 10.2812C41.7552 10.4896 41.9323 10.8542 42.1406 11.375L42.9219 13.3125C43.7969 15.5 44.6615 17.5 45.5156 19.3125C45.974 18.6042 46.4115 17.6875 46.8281 16.5625L47.7969 13.875C48.6302 11.5208 49.3802 10.3229 50.0469 10.2812C50.5677 9.94792 52.1302 11.7917 54.7344 15.8125C55.8385 17.5208 56.526 18.5417 56.7969 18.875C56.9844 18.875 57.2031 18.25 57.4531 17C57.724 15.75 57.9531 14.6979 58.1406 13.8438C58.349 12.9688 58.599 12.1562 58.8906 11.4062C59.5781 9.65625 60.3698 8.78125 61.2656 8.78125C61.5573 8.78125 61.7552 8.88542 61.8594 9.09375C61.9844 9.28125 62.0469 9.4375 62.0469 9.5625C62.0469 9.6875 62.0469 9.78125 62.0469 9.84375C61.7969 10.5521 61.5365 11.3646 61.2656 12.2812C60.9948 13.1771 60.7031 14.1042 60.3906 15.0625C60.099 16 59.7969 16.9375 59.4844 17.875C59.1927 18.7917 58.901 19.625 58.6094 20.375C57.9219 22 57.349 22.875 56.8906 23C56.5365 23.1667 55.9635 22.7604 55.1719 21.7812C54.8177 21.3229 54.4427 20.7812 54.0469 20.1562C53.651 19.5312 53.2344 18.8854 52.7969 18.2188C51.7344 16.5521 50.8906 15.2708 50.2656 14.375ZM88.9531 14.375C88.4948 15.8958 88.1094 17.3021 87.7969 18.5938C87.5052 19.8854 87.2135 20.9583 86.9219 21.8125C86.4635 23.0417 85.9427 23.6562 85.3594 23.6562C85.0469 23.6562 84.6927 23.5104 84.2969 23.2188C83.3385 22.1979 81.9844 19.9375 80.2344 16.4375C78.526 13.0208 77.6719 10.8854 77.6719 10.0312C77.6719 9.65625 77.7865 9.42708 78.0156 9.34375C78.2448 9.23958 78.5052 9.22917 78.7969 9.3125C79.5052 9.52083 80.0052 9.84375 80.2969 10.2812C80.4427 10.4896 80.6198 10.8542 80.8281 11.375L81.6094 13.3125C82.4844 15.5 83.349 17.5 84.2031 19.3125C84.6615 18.6042 85.099 17.6875 85.5156 16.5625L86.4844 13.875C87.3177 11.5208 88.0677 10.3229 88.7344 10.2812C89.2552 9.94792 90.8177 11.7917 93.4219 15.8125C94.526 17.5208 95.2135 18.5417 95.4844 18.875C95.6719 18.875 95.8906 18.25 96.1406 17C96.4115 15.75 96.6406 14.6979 96.8281 13.8438C97.0365 12.9688 97.2865 12.1562 97.5781 11.4062C98.2656 9.65625 99.0573 8.78125 99.9531 8.78125C100.245 8.78125 100.443 8.88542 100.547 9.09375C100.672 9.28125 100.734 9.4375 100.734 9.5625C100.734 9.6875 100.734 9.78125 100.734 9.84375C100.484 10.5521 100.224 11.3646 99.9531 12.2812C99.6823 13.1771 99.3906 14.1042 99.0781 15.0625C98.7865 16 98.4844 16.9375 98.1719 17.875C97.8802 18.7917 97.5885 19.625 97.2969 20.375C96.6094 22 96.0365 22.875 95.5781 23C95.224 23.1667 94.651 22.7604 93.8594 21.7812C93.5052 21.3229 93.1302 20.7812 92.7344 20.1562C92.3385 19.5312 91.9219 18.8854 91.4844 18.2188C90.4219 16.5521 89.5781 15.2708 88.9531 14.375ZM109.328 20.8125C111.161 20.8125 113.922 19.9792 117.609 18.3125C117.839 18.3125 118.026 18.3958 118.172 18.5625C118.318 18.7083 118.391 18.8854 118.391 19.0938C117.557 20.5104 115.964 21.6146 113.609 22.4062C111.255 23.1979 109.057 23.3333 107.016 22.8125C104.703 22.2083 103.297 20.9062 102.797 18.9062C102.755 18.5104 102.734 17.9792 102.734 17.3125C102.734 16.6458 102.901 15.7708 103.234 14.6875C103.589 13.5833 104.182 12.5417 105.016 11.5625C105.849 10.5833 106.828 9.8125 107.953 9.25C109.078 8.6875 110.276 8.40625 111.547 8.40625C112.755 8.40625 114.109 8.82292 115.609 9.65625C116.318 10.0521 116.88 10.5 117.297 11C117.714 11.5 117.922 12.0104 117.922 12.5312C117.922 12.6771 117.911 12.8229 117.891 12.9688C117.849 14.2396 117.234 15.0417 116.047 15.375C115.526 15.5208 114.922 15.5938 114.234 15.5938L109.734 15.4062C108.234 15.4062 107.089 15.7292 106.297 16.375C105.839 16.7292 105.516 17.2604 105.328 17.9688C105.849 19.8646 107.182 20.8125 109.328 20.8125ZM114.891 11.1562C114.432 10.8229 113.953 10.5833 113.453 10.4375C112.953 10.2917 112.536 10.2188 112.203 10.2188C111.87 10.2188 111.328 10.3333 110.578 10.5625C109.828 10.7708 109.161 11.0104 108.578 11.2812C107.141 11.9479 106.422 12.6458 106.422 13.375C108.089 13.5208 109.339 13.5938 110.172 13.5938C112.484 13.5938 114.047 13.3958 114.859 13C115.359 12.7917 115.609 12.5312 115.609 12.2188C115.609 11.8438 115.37 11.4896 114.891 11.1562ZM145.359 17.8125C143.797 20.2708 141.714 21.7917 139.109 22.375C138.505 22.5 137.953 22.5625 137.453 22.5625C136.974 22.5625 136.568 22.5625 136.234 22.5625C135.922 22.5417 135.568 22.4896 135.172 22.4062C134.776 22.3229 134.411 22.1875 134.078 22C133.307 21.5625 132.922 20.9479 132.922 20.1562C132.839 19.7812 132.797 19.3646 132.797 18.9062C132.797 18.4271 132.901 17.8021 133.109 17.0312C133.318 16.2604 133.693 15.4271 134.234 14.5312C134.797 13.6354 135.474 12.8125 136.266 12.0625C137.911 10.4792 139.693 9.45833 141.609 9C142.172 8.875 142.682 8.8125 143.141 8.8125C143.62 8.8125 144.047 8.84375 144.422 8.90625C145.63 8.90625 146.443 9.72917 146.859 11.375C147.13 12.4167 147.286 13.875 147.328 15.75C147.391 17.6042 147.443 19.0417 147.484 20.0625C147.547 21.0625 147.682 21.9792 147.891 22.8125H146.047C145.964 22.25 145.901 21.75 145.859 21.3125C145.818 20.875 145.776 20.4688 145.734 20.0938C145.63 19.2188 145.505 18.4583 145.359 17.8125ZM145.234 12.9688C145.234 11.7604 144.641 11.1562 143.453 11.1562C143.307 11.1354 143.161 11.125 143.016 11.125C141.495 11.125 139.891 11.8542 138.203 13.3125C137.411 13.9792 136.734 14.7292 136.172 15.5625C135.339 16.75 134.922 17.8125 134.922 18.75C134.922 19.9792 135.63 20.7083 137.047 20.9375C138.922 20.8958 140.714 20.0417 142.422 18.375C143.151 17.6458 143.755 16.8542 144.234 16C144.901 14.8542 145.234 13.8438 145.234 12.9688ZM164.703 11.5938C163.828 10.9688 162.703 10.6562 161.328 10.6562C160.036 10.6562 158.839 10.8958 157.734 11.375C155.651 12.25 154.224 13.375 153.453 14.75C153.12 15.375 152.953 16.0417 152.953 16.75C152.953 16.875 152.953 17.2292 152.953 17.8125C152.953 18.375 153.057 19.1458 153.266 20.125C153.474 21.0833 153.578 22.0625 153.578 23.0625C153.141 23.0833 152.786 23.1354 152.516 23.2188C152.245 23.3021 152.016 23.3438 151.828 23.3438C151.641 23.3438 151.474 23.2604 151.328 23.0938C151.203 22.9271 151.057 22.6042 150.891 22.125C150.87 22 150.828 21.6458 150.766 21.0625C150.703 20.4792 150.62 19.7708 150.516 18.9375C150.432 18.1042 150.328 17.1979 150.203 16.2188C150.099 15.2188 149.995 14.2396 149.891 13.2812C149.661 11.1979 149.484 9.66667 149.359 8.6875C149.359 8.1875 149.724 7.9375 150.453 7.9375C150.891 7.9375 151.234 8.125 151.484 8.5C151.734 8.85417 151.932 9.27083 152.078 9.75C152.224 10.2083 152.318 10.6667 152.359 11.125C152.422 11.5833 152.474 11.9062 152.516 12.0938C155.266 9.63542 158.682 8.40625 162.766 8.40625C163.224 8.40625 163.703 8.41667 164.203 8.4375C164.328 8.41667 164.484 8.40625 164.672 8.40625C164.859 8.40625 165.047 8.53125 165.234 8.78125C165.464 9.07292 165.578 9.42708 165.578 9.84375C165.578 10.8854 165.286 11.4688 164.703 11.5938ZM173.391 20.8125C175.224 20.8125 177.984 19.9792 181.672 18.3125C181.901 18.3125 182.089 18.3958 182.234 18.5625C182.38 18.7083 182.453 18.8854 182.453 19.0938C181.62 20.5104 180.026 21.6146 177.672 22.4062C175.318 23.1979 173.12 23.3333 171.078 22.8125C168.766 22.2083 167.359 20.9062 166.859 18.9062C166.818 18.5104 166.797 17.9792 166.797 17.3125C166.797 16.6458 166.964 15.7708 167.297 14.6875C167.651 13.5833 168.245 12.5417 169.078 11.5625C169.911 10.5833 170.891 9.8125 172.016 9.25C173.141 8.6875 174.339 8.40625 175.609 8.40625C176.818 8.40625 178.172 8.82292 179.672 9.65625C180.38 10.0521 180.943 10.5 181.359 11C181.776 11.5 181.984 12.0104 181.984 12.5312C181.984 12.6771 181.974 12.8229 181.953 12.9688C181.911 14.2396 181.297 15.0417 180.109 15.375C179.589 15.5208 178.984 15.5938 178.297 15.5938L173.797 15.4062C172.297 15.4062 171.151 15.7292 170.359 16.375C169.901 16.7292 169.578 17.2604 169.391 17.9688C169.911 19.8646 171.245 20.8125 173.391 20.8125ZM178.953 11.1562C178.495 10.8229 178.016 10.5833 177.516 10.4375C177.016 10.2917 176.599 10.2188 176.266 10.2188C175.932 10.2188 175.391 10.3333 174.641 10.5625C173.891 10.7708 173.224 11.0104 172.641 11.2812C171.203 11.9479 170.484 12.6458 170.484 13.375C172.151 13.5208 173.401 13.5938 174.234 13.5938C176.547 13.5938 178.109 13.3958 178.922 13C179.422 12.7917 179.672 12.5312 179.672 12.2188C179.672 11.8438 179.432 11.4896 178.953 11.1562ZM209.016 14.375C208.557 15.8958 208.172 17.3021 207.859 18.5938C207.568 19.8854 207.276 20.9583 206.984 21.8125C206.526 23.0417 206.005 23.6562 205.422 23.6562C205.109 23.6562 204.755 23.5104 204.359 23.2188C203.401 22.1979 202.047 19.9375 200.297 16.4375C198.589 13.0208 197.734 10.8854 197.734 10.0312C197.734 9.65625 197.849 9.42708 198.078 9.34375C198.307 9.23958 198.568 9.22917 198.859 9.3125C199.568 9.52083 200.068 9.84375 200.359 10.2812C200.505 10.4896 200.682 10.8542 200.891 11.375L201.672 13.3125C202.547 15.5 203.411 17.5 204.266 19.3125C204.724 18.6042 205.161 17.6875 205.578 16.5625L206.547 13.875C207.38 11.5208 208.13 10.3229 208.797 10.2812C209.318 9.94792 210.88 11.7917 213.484 15.8125C214.589 17.5208 215.276 18.5417 215.547 18.875C215.734 18.875 215.953 18.25 216.203 17C216.474 15.75 216.703 14.6979 216.891 13.8438C217.099 12.9688 217.349 12.1562 217.641 11.4062C218.328 9.65625 219.12 8.78125 220.016 8.78125C220.307 8.78125 220.505 8.88542 220.609 9.09375C220.734 9.28125 220.797 9.4375 220.797 9.5625C220.797 9.6875 220.797 9.78125 220.797 9.84375C220.547 10.5521 220.286 11.3646 220.016 12.2812C219.745 13.1771 219.453 14.1042 219.141 15.0625C218.849 16 218.547 16.9375 218.234 17.875C217.943 18.7917 217.651 19.625 217.359 20.375C216.672 22 216.099 22.875 215.641 23C215.286 23.1667 214.714 22.7604 213.922 21.7812C213.568 21.3229 213.193 20.7812 212.797 20.1562C212.401 19.5312 211.984 18.8854 211.547 18.2188C210.484 16.5521 209.641 15.2708 209.016 14.375ZM223.797 17.0625C223.797 14.6042 224.859 12.625 226.984 11.125C228.672 9.9375 230.703 9.21875 233.078 8.96875C233.203 8.96875 233.495 8.96875 233.953 8.96875C234.411 8.96875 235.026 9.10417 235.797 9.375C237.505 9.95833 238.672 10.9896 239.297 12.4688C239.547 13.0521 239.672 13.5521 239.672 13.9688C239.672 14.3646 239.661 14.6458 239.641 14.8125C239.641 17.4167 238.651 19.4688 236.672 20.9688C234.839 22.3438 232.547 23.0312 229.797 23.0312C227.818 23.0312 226.318 22.5729 225.297 21.6562C224.297 20.7396 223.797 19.2083 223.797 17.0625ZM225.953 17.8125C225.953 19.1042 226.297 19.9792 226.984 20.4375C227.505 20.7708 228.38 20.9375 229.609 20.9375C230.839 20.9375 231.922 20.8438 232.859 20.6562C233.797 20.4688 234.63 20.1458 235.359 19.6875C236.922 18.6875 237.703 17.1354 237.703 15.0312C237.703 13.7812 237.37 12.7604 236.703 11.9688C235.974 11.1146 235.016 10.6875 233.828 10.6875C233.016 10.8333 232.193 10.9896 231.359 11.1562C230.547 11.3229 229.776 11.6458 229.047 12.125C227.464 13.1458 226.432 15.0417 225.953 17.8125ZM256.359 11.5938C255.484 10.9688 254.359 10.6562 252.984 10.6562C251.693 10.6562 250.495 10.8958 249.391 11.375C247.307 12.25 245.88 13.375 245.109 14.75C244.776 15.375 244.609 16.0417 244.609 16.75C244.609 16.875 244.609 17.2292 244.609 17.8125C244.609 18.375 244.714 19.1458 244.922 20.125C245.13 21.0833 245.234 22.0625 245.234 23.0625C244.797 23.0833 244.443 23.1354 244.172 23.2188C243.901 23.3021 243.672 23.3438 243.484 23.3438C243.297 23.3438 243.13 23.2604 242.984 23.0938C242.859 22.9271 242.714 22.6042 242.547 22.125C242.526 22 242.484 21.6458 242.422 21.0625C242.359 20.4792 242.276 19.7708 242.172 18.9375C242.089 18.1042 241.984 17.1979 241.859 16.2188C241.755 15.2188 241.651 14.2396 241.547 13.2812C241.318 11.1979 241.141 9.66667 241.016 8.6875C241.016 8.1875 241.38 7.9375 242.109 7.9375C242.547 7.9375 242.891 8.125 243.141 8.5C243.391 8.85417 243.589 9.27083 243.734 9.75C243.88 10.2083 243.974 10.6667 244.016 11.125C244.078 11.5833 244.13 11.9062 244.172 12.0938C246.922 9.63542 250.339 8.40625 254.422 8.40625C254.88 8.40625 255.359 8.41667 255.859 8.4375C255.984 8.41667 256.141 8.40625 256.328 8.40625C256.516 8.40625 256.703 8.53125 256.891 8.78125C257.12 9.07292 257.234 9.42708 257.234 9.84375C257.234 10.8854 256.943 11.4688 256.359 11.5938ZM261.766 17.3125L261.922 20.0312C261.922 21.6979 261.526 22.7083 260.734 23.0625C260.568 23.125 260.37 23.1562 260.141 23.1562C259.911 23.1562 259.641 23.1042 259.328 23L259.359 11.3125C259.359 9.625 259.255 7.9375 259.047 6.25C258.859 4.54167 258.766 2.84375 258.766 1.15625C258.766 0.489583 259.12 0.15625 259.828 0.15625H260.078C260.224 0.15625 260.318 0.166667 260.359 0.1875C260.672 1.47917 260.88 3.04167 260.984 4.875C261.214 8.9375 261.422 11.6667 261.609 13.0625C261.964 12.875 262.755 12.3438 263.984 11.4688C265.214 10.5938 266.203 9.89583 266.953 9.375C267.703 8.83333 268.411 8.33333 269.078 7.875C270.641 6.85417 271.62 6.34375 272.016 6.34375C272.349 6.34375 272.609 6.54167 272.797 6.9375C271.755 8.25 270.078 9.70833 267.766 11.3125C266.828 11.9583 265.891 12.6042 264.953 13.25C264.036 13.875 263.193 14.5312 262.422 15.2188C263.818 15.5938 265.141 15.9896 266.391 16.4062C267.641 16.8021 268.849 17.1667 270.016 17.5C272.703 18.2917 275.016 18.7396 276.953 18.8438C276.953 19.4062 276.901 19.7708 276.797 19.9375C276.609 20.2292 276.224 20.3958 275.641 20.4375H275.391C274.12 20.0833 272.432 19.6875 270.328 19.25C266.182 18.3958 263.328 17.75 261.766 17.3125ZM281.141 8.3125C281.411 12.2083 281.641 16.7188 281.828 21.8438C281.703 22.4896 281.203 22.8125 280.328 22.8125C280.099 22.8125 279.859 22.7708 279.609 22.6875C279.38 22.5833 279.234 22.4479 279.172 22.2812V8.3125H281.141ZM278.234 4.0625C278.234 3.33333 278.661 2.96875 279.516 2.96875C280.078 2.96875 280.536 3.09375 280.891 3.34375C280.953 3.57292 280.984 3.80208 280.984 4.03125C280.984 4.23958 280.901 4.44792 280.734 4.65625C280.568 4.86458 280.318 4.96875 279.984 4.96875C279.651 4.96875 279.318 4.89583 278.984 4.75C278.651 4.58333 278.401 4.35417 278.234 4.0625ZM295.359 16.1562C295.359 13.6771 295.224 11.8542 294.953 10.6875C295.12 10.375 294.87 10.2188 294.203 10.2188C293.495 10.2188 292.578 10.3958 291.453 10.75C290.328 11.1042 289.411 11.4583 288.703 11.8125C287.016 12.625 286.078 13.4167 285.891 14.1875V22.6875H283.797C283.526 21.9792 283.391 19.9896 283.391 16.7188C283.391 13.8021 283.443 11.6562 283.547 10.2812C283.672 8.90625 283.766 8.125 283.828 7.9375C284.37 7.58333 284.807 7.40625 285.141 7.40625C285.661 7.40625 285.922 8.02083 285.922 9.25C285.922 9.72917 285.891 10.1979 285.828 10.6562C285.786 11.0938 285.766 11.3958 285.766 11.5625C289.141 9.08333 291.755 7.84375 293.609 7.84375C295.714 7.84375 296.911 9.54167 297.203 12.9375C297.328 14.125 297.391 15.7708 297.391 17.875L297.359 20.3438C297.359 21.2604 297.38 22.1458 297.422 23C297.214 23.125 297.047 23.1875 296.922 23.1875C296.859 23.1667 296.724 23.1354 296.516 23.0938C296.307 23.0521 296.036 23.0208 295.703 23C295.495 22.1667 295.38 21.3229 295.359 20.4688C295.339 19.5938 295.328 18.7917 295.328 18.0625L295.359 16.1562ZM308.203 36.375L307.766 36.3438C307.141 36.3438 306.474 36.3854 305.766 36.4688H304.578C303.328 36.4688 302.349 36.2292 301.641 35.75C301.266 35.5 301.078 35.125 301.078 34.625L308.266 34.2812C310.474 34.2188 311.578 33.0312 311.578 30.7188C311.578 30.6354 311.578 30.4896 311.578 30.2812C311.578 30.0938 311.578 29.6667 311.578 29L311.734 18.9375C311.734 18.5833 311.724 18.2917 311.703 18.0625C308.328 21.2083 305.078 22.7812 301.953 22.7812C301.682 22.7812 301.411 22.7708 301.141 22.75C299.745 22.75 299.047 22.1354 299.047 20.9062C299.089 19.9479 299.37 18.8958 299.891 17.75C300.411 16.5833 301.078 15.4688 301.891 14.4062C302.724 13.3229 303.661 12.3542 304.703 11.5C306.307 10.1875 307.859 9.53125 309.359 9.53125C311.109 9.53125 312.547 10.4583 313.672 12.3125C314.005 17.2708 314.172 20.7917 314.172 22.875C314.172 24.9583 314.141 26.6667 314.078 28C314.016 29.3333 313.87 30.5521 313.641 31.6562C313.432 32.7604 313.151 33.6354 312.797 34.2812C312.443 34.9271 312.026 35.3958 311.547 35.6875C310.755 36.1458 309.641 36.375 308.203 36.375ZM310.078 11.8125C309.828 11.7292 309.474 11.6875 309.016 11.6875C308.578 11.6875 308.005 11.875 307.297 12.25C306.589 12.625 305.911 13.1146 305.266 13.7188C304.62 14.3021 304.016 14.9583 303.453 15.6875C302.078 17.4792 301.391 18.9062 301.391 19.9688C301.391 20.3021 301.484 20.5521 301.672 20.7188C301.818 20.8021 301.995 20.8438 302.203 20.8438C302.432 20.8438 302.755 20.8125 303.172 20.75C303.589 20.6667 304.151 20.4792 304.859 20.1875C305.589 19.875 306.339 19.4792 307.109 19C307.88 18.5208 308.578 17.9896 309.203 17.4062C310.661 16.0729 311.391 14.7708 311.391 13.5C311.391 12.7292 310.953 12.1667 310.078 11.8125Z" fill="#161616"/>
</svg>
