<svg width="169" height="25" viewBox="0 0 169 25" fill="none" xmlns="http://www.w3.org/2000/svg">
<path d="M1.125 18.75C0.625 17.625 0.375 16.3021 0.375 14.7812C0.375 13.2604 0.614583 11.9167 1.09375 10.75C1.59375 9.5625 2.27083 8.54167 3.125 7.6875C4.9375 5.91667 7.20833 5.03125 9.9375 5.03125C12.7917 5.03125 15.1458 5.6875 17 7C19.0833 8.5 20.125 10.6458 20.125 13.4375C20.125 16.8958 19.3229 19.4479 17.7188 21.0938C16.1354 22.7396 13.6562 23.5625 10.2812 23.5625C5.59375 23.5625 2.54167 21.9583 1.125 18.75ZM2.9375 14.1562C2.9375 19.0729 5.41667 21.5312 10.375 21.5312C12.8125 21.5312 14.7917 20.8021 16.3125 19.3438C17.8333 17.9062 18.5938 16.0208 18.5938 13.6875C18.5938 11.5 17.6875 9.83333 15.875 8.6875C14.3333 7.6875 12.3854 7.1875 10.0312 7.1875C8.15625 7.1875 6.5 7.86458 5.0625 9.21875C3.64583 10.5729 2.9375 12.2188 2.9375 14.1562ZM21.8125 19.8438C21.8125 19.5104 21.7812 19.0521 21.7188 18.4688C21.6771 17.8646 21.6354 17.2083 21.5938 16.5C21.5521 15.7917 21.5312 15.0729 21.5312 14.3438C21.5312 13.6146 21.5938 12.9479 21.7188 12.3438C21.9896 10.9896 22.5521 10.3125 23.4062 10.3125C23.9896 10.4792 24.375 10.6875 24.5625 10.9375C24.7708 11.1875 24.875 11.5 24.875 11.875C24.875 12.2292 24.7812 12.6771 24.5938 13.2188C23.9062 15.0312 23.5625 16.6667 23.5625 18.125C23.5625 18.6042 23.5938 19.1146 23.6562 19.6562C23.9896 21.0521 25.1354 21.75 27.0938 21.75C28.1146 21.75 29.0833 21.5729 30 21.2188C31.75 20.5729 32.9375 19.8125 33.5625 18.9375C33.75 17.9792 33.8438 17.1458 33.8438 16.4375C33.8438 15.7083 33.8125 15.0625 33.75 14.5C33.7083 13.9375 33.6458 13.3229 33.5625 12.6562C33.5 11.9688 33.4583 11.2188 33.4375 10.4062C33.7083 10.2812 33.9688 10.2188 34.2188 10.2188C34.4896 10.2188 34.7604 10.3542 35.0312 10.625C35.3229 10.8958 35.5625 11.4062 35.75 12.1562C35.9583 12.9062 36.0938 13.7917 36.1562 14.8125C36.2188 15.8125 36.25 16.8542 36.25 17.9375C36.2708 19.0208 36.2812 20.0729 36.2812 21.0938C36.2812 22.0938 36.3229 22.9583 36.4062 23.6875C36.1562 23.9167 35.9167 24.0312 35.6875 24.0312C34.8542 24.0312 34.2396 23.1979 33.8438 21.5312C33.5729 21.7604 33.1146 22.0417 32.4688 22.375C31.0938 23.125 29.4688 23.625 27.5938 23.875C27.2396 23.9167 26.8438 23.9375 26.4062 23.9375C25.9688 23.9375 25.4167 23.8542 24.75 23.6875C24.1042 23.5208 23.4896 23.1354 22.9062 22.5312C22.3229 21.9271 21.9583 21.0312 21.8125 19.8438ZM53.5625 12.5938C52.6875 11.9688 51.5625 11.6562 50.1875 11.6562C48.8958 11.6562 47.6979 11.8958 46.5938 12.375C44.5104 13.25 43.0833 14.375 42.3125 15.75C41.9792 16.375 41.8125 17.0417 41.8125 17.75C41.8125 17.875 41.8125 18.2292 41.8125 18.8125C41.8125 19.375 41.9167 20.1458 42.125 21.125C42.3333 22.0833 42.4375 23.0625 42.4375 24.0625C42 24.0833 41.6458 24.1354 41.375 24.2188C41.1042 24.3021 40.875 24.3438 40.6875 24.3438C40.5 24.3438 40.3333 24.2604 40.1875 24.0938C40.0625 23.9271 39.9167 23.6042 39.75 23.125C39.7292 23 39.6875 22.6458 39.625 22.0625C39.5625 21.4792 39.4792 20.7708 39.375 19.9375C39.2917 19.1042 39.1875 18.1979 39.0625 17.2188C38.9583 16.2188 38.8542 15.2396 38.75 14.2812C38.5208 12.1979 38.3438 10.6667 38.2188 9.6875C38.2188 9.1875 38.5833 8.9375 39.3125 8.9375C39.75 8.9375 40.0938 9.125 40.3438 9.5C40.5938 9.85417 40.7917 10.2708 40.9375 10.75C41.0833 11.2083 41.1771 11.6667 41.2188 12.125C41.2812 12.5833 41.3333 12.9062 41.375 13.0938C44.125 10.6354 47.5417 9.40625 51.625 9.40625C52.0833 9.40625 52.5625 9.41667 53.0625 9.4375C53.1875 9.41667 53.3438 9.40625 53.5312 9.40625C53.7188 9.40625 53.9062 9.53125 54.0938 9.78125C54.3229 10.0729 54.4375 10.4271 54.4375 10.8438C54.4375 11.8854 54.1458 12.4688 53.5625 12.5938ZM91.6875 18.8125C92.7292 15.4375 93.9375 9.27083 95.3125 0.3125C96.625 0.3125 97.3125 0.71875 97.375 1.53125C97.3958 1.78125 97.4062 1.95833 97.4062 2.0625C97.4271 2.16667 97.3958 2.53125 97.3125 3.15625C97.2292 3.76042 97.1042 4.61458 96.9375 5.71875C96.7917 6.82292 96.6042 8.10417 96.375 9.5625C96.1458 11.0208 95.8854 12.5417 95.5938 14.125C94.8854 17.8542 94.1562 21 93.4062 23.5625C92.6562 24.0833 92.0729 24.1667 91.6562 23.8125C91.4688 23.625 91.3021 23.375 91.1562 23.0625C91.0104 22.7292 90.8438 22.3542 90.6562 21.9375C90.3854 21.5833 89.8854 20.6458 89.1562 19.125C88.4271 17.6042 87.8333 16.3958 87.375 15.5C86.9375 14.6042 86.5104 13.7708 86.0938 13C85.1354 11.2708 84.3333 10.2604 83.6875 9.96875C82.9375 11.1354 81.6042 14.3333 79.6875 19.5625C79.3542 20.4792 79.0521 21.3333 78.7812 22.125C78.5104 22.8958 78.2812 23.5208 78.0938 24L76.1562 23.9062L68.3438 5.84375C68.3021 5.73958 68.2812 5.63542 68.2812 5.53125C68.2812 5.42708 68.3125 5.32292 68.375 5.21875C68.4583 5.11458 68.5938 5.02083 68.7812 4.9375C69.1354 4.8125 69.4896 4.75 69.8438 4.75C70.1979 4.75 70.4479 4.82292 70.5938 4.96875C70.7604 5.09375 70.8854 5.26042 70.9688 5.46875C71.0729 5.67708 71.1562 5.90625 71.2188 6.15625C71.2812 6.40625 71.3958 6.72917 71.5625 7.125C71.75 7.52083 72.0104 8.10417 72.3438 8.875C72.6979 9.64583 73.0729 10.4583 73.4688 11.3125C73.8646 12.1667 74.2604 13.0208 74.6562 13.875C75.0521 14.7083 75.4271 15.4792 75.7812 16.1875C76.5312 17.75 77 18.625 77.1875 18.8125C79.6042 12.8542 81.0938 9.32292 81.6562 8.21875C82.2188 7.09375 82.5729 6.40625 82.7188 6.15625C82.9479 5.80208 83.125 5.625 83.25 5.625C84.1458 5.625 85.6562 7.625 87.7812 11.625C88.3646 12.6875 88.9062 13.7083 89.4062 14.6875C90.6354 17.0625 91.3958 18.4375 91.6875 18.8125ZM99.5625 18.0625C99.5625 15.6042 100.625 13.625 102.75 12.125C104.438 10.9375 106.469 10.2188 108.844 9.96875C108.969 9.96875 109.26 9.96875 109.719 9.96875C110.177 9.96875 110.792 10.1042 111.562 10.375C113.271 10.9583 114.438 11.9896 115.062 13.4688C115.312 14.0521 115.438 14.5521 115.438 14.9688C115.438 15.3646 115.427 15.6458 115.406 15.8125C115.406 18.4167 114.417 20.4688 112.438 21.9688C110.604 23.3438 108.312 24.0312 105.562 24.0312C103.583 24.0312 102.083 23.5729 101.062 22.6562C100.062 21.7396 99.5625 20.2083 99.5625 18.0625ZM101.719 18.8125C101.719 20.1042 102.062 20.9792 102.75 21.4375C103.271 21.7708 104.146 21.9375 105.375 21.9375C106.604 21.9375 107.688 21.8438 108.625 21.6562C109.562 21.4688 110.396 21.1458 111.125 20.6875C112.688 19.6875 113.469 18.1354 113.469 16.0312C113.469 14.7812 113.135 13.7604 112.469 12.9688C111.74 12.1146 110.781 11.6875 109.594 11.6875C108.781 11.8333 107.958 11.9896 107.125 12.1562C106.312 12.3229 105.542 12.6458 104.812 13.125C103.229 14.1458 102.198 16.0417 101.719 18.8125ZM132.125 12.5938C131.25 11.9688 130.125 11.6562 128.75 11.6562C127.458 11.6562 126.26 11.8958 125.156 12.375C123.073 13.25 121.646 14.375 120.875 15.75C120.542 16.375 120.375 17.0417 120.375 17.75C120.375 17.875 120.375 18.2292 120.375 18.8125C120.375 19.375 120.479 20.1458 120.688 21.125C120.896 22.0833 121 23.0625 121 24.0625C120.562 24.0833 120.208 24.1354 119.938 24.2188C119.667 24.3021 119.438 24.3438 119.25 24.3438C119.062 24.3438 118.896 24.2604 118.75 24.0938C118.625 23.9271 118.479 23.6042 118.312 23.125C118.292 23 118.25 22.6458 118.188 22.0625C118.125 21.4792 118.042 20.7708 117.938 19.9375C117.854 19.1042 117.75 18.1979 117.625 17.2188C117.521 16.2188 117.417 15.2396 117.312 14.2812C117.083 12.1979 116.906 10.6667 116.781 9.6875C116.781 9.1875 117.146 8.9375 117.875 8.9375C118.312 8.9375 118.656 9.125 118.906 9.5C119.156 9.85417 119.354 10.2708 119.5 10.75C119.646 11.2083 119.74 11.6667 119.781 12.125C119.844 12.5833 119.896 12.9062 119.938 13.0938C122.688 10.6354 126.104 9.40625 130.188 9.40625C130.646 9.40625 131.125 9.41667 131.625 9.4375C131.75 9.41667 131.906 9.40625 132.094 9.40625C132.281 9.40625 132.469 9.53125 132.656 9.78125C132.885 10.0729 133 10.4271 133 10.8438C133 11.8854 132.708 12.4688 132.125 12.5938ZM137.531 18.3125L137.688 21.0312C137.688 22.6979 137.292 23.7083 136.5 24.0625C136.333 24.125 136.135 24.1562 135.906 24.1562C135.677 24.1562 135.406 24.1042 135.094 24L135.125 12.3125C135.125 10.625 135.021 8.9375 134.812 7.25C134.625 5.54167 134.531 3.84375 134.531 2.15625C134.531 1.48958 134.885 1.15625 135.594 1.15625H135.844C135.99 1.15625 136.083 1.16667 136.125 1.1875C136.438 2.47917 136.646 4.04167 136.75 5.875C136.979 9.9375 137.188 12.6667 137.375 14.0625C137.729 13.875 138.521 13.3438 139.75 12.4688C140.979 11.5938 141.969 10.8958 142.719 10.375C143.469 9.83333 144.177 9.33333 144.844 8.875C146.406 7.85417 147.385 7.34375 147.781 7.34375C148.115 7.34375 148.375 7.54167 148.562 7.9375C147.521 9.25 145.844 10.7083 143.531 12.3125C142.594 12.9583 141.656 13.6042 140.719 14.25C139.802 14.875 138.958 15.5312 138.188 16.2188C139.583 16.5938 140.906 16.9896 142.156 17.4062C143.406 17.8021 144.615 18.1667 145.781 18.5C148.469 19.2917 150.781 19.7396 152.719 19.8438C152.719 20.4062 152.667 20.7708 152.562 20.9375C152.375 21.2292 151.99 21.3958 151.406 21.4375H151.156C149.885 21.0833 148.198 20.6875 146.094 20.25C141.948 19.3958 139.094 18.75 137.531 18.3125ZM164.781 15.9375C167.073 15.9375 168.219 16.5208 168.219 17.6875C168.219 18.5625 167.583 19.5833 166.312 20.75C164.417 22.4792 161.865 23.8646 158.656 24.9062C158.51 24.9062 158.344 24.7604 158.156 24.4688C157.99 24.1771 157.854 23.9583 157.75 23.8125C157.667 23.6458 157.604 23.5417 157.562 23.5C159.958 22.7083 161.927 21.75 163.469 20.625C164.51 19.875 165.031 19.2604 165.031 18.7812C165.031 18.3021 164.417 18.0625 163.188 18.0625C161.958 18.0625 160.156 18.3542 157.781 18.9375C156.698 18.8958 155.76 18.5104 154.969 17.7812C154.281 17.1354 153.938 16.4896 153.938 15.8438C153.938 15.1771 154.125 14.5729 154.5 14.0312C154.875 13.4688 155.375 12.9479 156 12.4688C156.625 11.9896 157.354 11.5521 158.188 11.1562C160.229 10.1771 162.344 9.6875 164.531 9.6875C165.177 9.6875 165.802 9.75 166.406 9.875C166.906 9.875 167.198 10.0938 167.281 10.5312C167.365 10.9688 167.406 11.6875 167.406 12.6875C166.177 12.125 164.792 11.8438 163.25 11.8438C161.333 11.8438 159.75 12.2292 158.5 13C157.208 13.75 156.542 14.7292 156.5 15.9375C156.5 16.5208 156.927 16.8125 157.781 16.8125L160.062 16.5625C162.021 16.1458 163.594 15.9375 164.781 15.9375Z" fill="#161616"/>
</svg>
