<svg width="132" height="25" viewBox="0 0 132 25" fill="none" xmlns="http://www.w3.org/2000/svg">
<path d="M17.1562 12.5625H18.0312C18.3854 12.5625 18.7188 12.5938 19.0312 12.6562C19.3646 12.7188 19.5312 12.9479 19.5312 13.3438C19.6771 14.1771 19.1875 14.5833 18.0625 14.5625C17.75 14.5417 17.4583 14.5208 17.1875 14.5C16.9375 14.4792 16.7292 14.4792 16.5625 14.5C16.3958 14.5 16.3229 14.5521 16.3438 14.6562C16.5521 15.2604 16.7708 15.9375 17 16.6875C17.25 17.4375 17.5208 18.1875 17.8125 18.9375C18.5625 20.7917 19.2708 22.125 19.9375 22.9375C19.5833 23.375 19.1667 23.7396 18.6875 24.0312C18.2292 24.3229 17.9792 24.4688 17.9375 24.4688C17.9167 24.4688 17.8958 24.4583 17.875 24.4375L13.4688 15.1562L4.9375 17.25L4.625 18.5625C4.02083 20.9583 3.34375 22.625 2.59375 23.5625C2.46875 23.7708 2.20833 23.7917 1.8125 23.625C1.14583 23.375 0.8125 23.1667 0.8125 23C0.8125 22.9583 1.03125 22.3542 1.46875 21.1875C1.90625 20.0208 2.34375 18.8438 2.78125 17.6562C3.23958 16.4479 3.70833 15.1875 4.1875 13.875C4.6875 12.5625 5.15625 11.3125 5.59375 10.125C6.03125 8.9375 6.42708 7.875 6.78125 6.9375C7.13542 5.97917 7.38542 5.29167 7.53125 4.875C7.67708 4.4375 7.77083 4.0625 7.8125 3.75C7.875 3.41667 7.95833 3.13542 8.0625 2.90625C8.27083 2.42708 8.79167 2.1875 9.625 2.1875C10.5208 2.6875 11.2083 3.34375 11.6875 4.15625C12.1875 4.94792 12.6042 5.80208 12.9375 6.71875C13.2917 7.63542 13.6354 8.5625 13.9688 9.5C14.3021 10.4375 14.75 11.2917 15.3125 12.0625C15.5 12.3542 15.7812 12.5104 16.1562 12.5312C16.5312 12.5521 16.8646 12.5625 17.1562 12.5625ZM9.34375 5.8125C9.17708 7.08333 8.80208 8.38542 8.21875 9.71875C7.63542 11.0521 7.16667 12.0938 6.8125 12.8438C6.45833 13.5729 6.15625 14.25 5.90625 14.875C7.32292 14.875 9.0625 14.4583 11.125 13.625C11.6458 13.3958 12.1458 13.1875 12.625 13C11.6458 8.8125 10.5521 6.41667 9.34375 5.8125ZM21.5312 5.875L21.4375 1.84375C21.4375 1.51042 21.5521 1.25 21.7812 1.0625C22.0104 0.875 22.2917 0.78125 22.625 0.78125C22.9583 0.78125 23.2604 0.875 23.5312 1.0625C23.8021 1.22917 23.9062 1.46875 23.8438 1.78125L24.0625 15.2812C25.375 13.5312 27.1458 12.0625 29.375 10.875C31.2292 9.875 32.8542 9.375 34.25 9.375C35.4792 9.375 36.4271 9.77083 37.0938 10.5625C37.5938 11.1875 37.8438 12.0208 37.8438 13.0625C37.8438 14.0833 37.6458 14.9792 37.25 15.75C36.875 16.5 36.375 17.2292 35.75 17.9375C35.125 18.625 34.4062 19.2708 33.5938 19.875C32.7812 20.4792 31.9583 21.0208 31.125 21.5C29.5417 22.4167 27.9792 23.1771 26.4375 23.7812C26.3125 23.7396 26.1042 23.7292 25.8125 23.75C25.5208 23.7708 25.1667 23.7812 24.75 23.7812C23.625 23.7812 22.6354 23.6458 21.7812 23.375C21.5729 21.3958 21.4688 18.3854 21.4688 14.3438L21.5312 5.875ZM24.1562 21.2188C24.1562 21.4479 24.3646 21.5625 24.7812 21.5625C25.2188 21.5625 25.75 21.4792 26.375 21.3125C27 21.1458 27.75 20.8646 28.625 20.4688C29.5208 20.0521 30.4167 19.5208 31.3125 18.875C33.3958 17.3958 34.9688 15.6562 36.0312 13.6562C35.7604 12.4688 34.9479 11.875 33.5938 11.875C32.3646 11.875 30.9792 12.3333 29.4375 13.25C27.25 14.5625 25.6875 16.1875 24.75 18.125C24.3542 18.8958 24.1562 19.6771 24.1562 20.4688C24.1562 20.6771 24.1562 20.8438 24.1562 20.9688C24.1562 21.0938 24.1562 21.1771 24.1562 21.2188ZM40.0938 18.0625C40.0938 15.6042 41.1562 13.625 43.2812 12.125C44.9688 10.9375 47 10.2188 49.375 9.96875C49.5 9.96875 49.7917 9.96875 50.25 9.96875C50.7083 9.96875 51.3229 10.1042 52.0938 10.375C53.8021 10.9583 54.9688 11.9896 55.5938 13.4688C55.8438 14.0521 55.9688 14.5521 55.9688 14.9688C55.9688 15.3646 55.9583 15.6458 55.9375 15.8125C55.9375 18.4167 54.9479 20.4688 52.9688 21.9688C51.1354 23.3438 48.8438 24.0312 46.0938 24.0312C44.1146 24.0312 42.6146 23.5729 41.5938 22.6562C40.5938 21.7396 40.0938 20.2083 40.0938 18.0625ZM42.25 18.8125C42.25 20.1042 42.5938 20.9792 43.2812 21.4375C43.8021 21.7708 44.6771 21.9375 45.9062 21.9375C47.1354 21.9375 48.2188 21.8438 49.1562 21.6562C50.0938 21.4688 50.9271 21.1458 51.6562 20.6875C53.2188 19.6875 54 18.1354 54 16.0312C54 14.7812 53.6667 13.7604 53 12.9688C52.2708 12.1146 51.3125 11.6875 50.125 11.6875C49.3125 11.8333 48.4896 11.9896 47.6562 12.1562C46.8438 12.3229 46.0729 12.6458 45.3438 13.125C43.7604 14.1458 42.7292 16.0417 42.25 18.8125ZM57.1562 19.8438C57.1562 19.5104 57.125 19.0521 57.0625 18.4688C57.0208 17.8646 56.9792 17.2083 56.9375 16.5C56.8958 15.7917 56.875 15.0729 56.875 14.3438C56.875 13.6146 56.9375 12.9479 57.0625 12.3438C57.3333 10.9896 57.8958 10.3125 58.75 10.3125C59.3333 10.4792 59.7188 10.6875 59.9062 10.9375C60.1146 11.1875 60.2188 11.5 60.2188 11.875C60.2188 12.2292 60.125 12.6771 59.9375 13.2188C59.25 15.0312 58.9062 16.6667 58.9062 18.125C58.9062 18.6042 58.9375 19.1146 59 19.6562C59.3333 21.0521 60.4792 21.75 62.4375 21.75C63.4583 21.75 64.4271 21.5729 65.3438 21.2188C67.0938 20.5729 68.2812 19.8125 68.9062 18.9375C69.0938 17.9792 69.1875 17.1458 69.1875 16.4375C69.1875 15.7083 69.1562 15.0625 69.0938 14.5C69.0521 13.9375 68.9896 13.3229 68.9062 12.6562C68.8438 11.9688 68.8021 11.2188 68.7812 10.4062C69.0521 10.2812 69.3125 10.2188 69.5625 10.2188C69.8333 10.2188 70.1042 10.3542 70.375 10.625C70.6667 10.8958 70.9062 11.4062 71.0938 12.1562C71.3021 12.9062 71.4375 13.7917 71.5 14.8125C71.5625 15.8125 71.5938 16.8542 71.5938 17.9375C71.6146 19.0208 71.625 20.0729 71.625 21.0938C71.625 22.0938 71.6667 22.9583 71.75 23.6875C71.5 23.9167 71.2604 24.0312 71.0312 24.0312C70.1979 24.0312 69.5833 23.1979 69.1875 21.5312C68.9167 21.7604 68.4583 22.0417 67.8125 22.375C66.4375 23.125 64.8125 23.625 62.9375 23.875C62.5833 23.9167 62.1875 23.9375 61.75 23.9375C61.3125 23.9375 60.7604 23.8542 60.0938 23.6875C59.4479 23.5208 58.8333 23.1354 58.25 22.5312C57.6667 21.9271 57.3021 21.0312 57.1562 19.8438ZM78.2812 21L78.3438 16C78.3438 15.2083 78.2708 14.5312 78.125 13.9688H73.2812L73.2188 11.8125H77.9062V3.75C77.9688 3.5625 78.0938 3.375 78.2812 3.1875C78.5729 2.89583 78.8125 2.75 79 2.75C79.2083 2.75 79.3854 2.77083 79.5312 2.8125C79.6771 2.85417 79.8333 3 80 3.25C80.3333 4.625 80.5 6.69792 80.5 9.46875C80.5 10.1562 80.5312 10.8333 80.5938 11.5C81.2604 11.4167 81.9271 11.375 82.5938 11.375C82.5938 11.375 83.1354 11.375 84.2188 11.375C84.6146 11.375 84.9792 11.3542 85.3125 11.3125L85.2188 13.5625L80.6562 13.4375L80.8125 24.2188C80.4375 24.3854 80.1146 24.4688 79.8438 24.4688C78.8021 24.4688 78.2812 23.3125 78.2812 21ZM114.906 23.5C114.906 23.875 114.583 24.0625 113.938 24.0625C113.625 24.0625 113.333 24.0208 113.062 23.9375C112.812 23.8333 112.656 23.75 112.594 23.6875L112.906 19.6875C110.99 21.3333 109.594 22.3646 108.719 22.7812C107.344 23.4688 105.938 23.8125 104.5 23.8125C104.229 23.8125 103.948 23.8021 103.656 23.7812C100.615 23.4479 99.0938 21.5 99.0938 17.9375C99.0938 16.3125 99.5104 13.5521 100.344 9.65625C100.615 8.44792 100.792 7.34375 100.875 6.34375C100.938 6.32292 101.073 6.3125 101.281 6.3125C101.281 6.3125 101.406 6.3125 101.656 6.3125C101.76 6.29167 101.854 6.28125 101.938 6.28125C102.604 6.28125 102.938 6.78125 102.938 7.78125C102.938 8.46875 102.802 9.32292 102.531 10.3438C101.698 13.6979 101.281 16.0208 101.281 17.3125C101.281 18.6667 101.635 19.7292 102.344 20.5C102.802 21 103.521 21.3021 104.5 21.4062C104.625 21.4062 104.75 21.4062 104.875 21.4062C108.271 21.4062 110.5 19.7708 111.562 16.5C112.188 14.5833 112.552 12.2708 112.656 9.5625C112.719 8.3125 112.771 7.07292 112.812 5.84375C113.042 5.21875 113.354 4.90625 113.75 4.90625C114.146 4.90625 114.583 5.08333 115.062 5.4375C115.125 6.64583 115.156 7.83333 115.156 9L114.844 20.9375C114.844 21.7917 114.865 22.6458 114.906 23.5ZM127.969 15.9375C130.26 15.9375 131.406 16.5208 131.406 17.6875C131.406 18.5625 130.771 19.5833 129.5 20.75C127.604 22.4792 125.052 23.8646 121.844 24.9062C121.698 24.9062 121.531 24.7604 121.344 24.4688C121.177 24.1771 121.042 23.9583 120.938 23.8125C120.854 23.6458 120.792 23.5417 120.75 23.5C123.146 22.7083 125.115 21.75 126.656 20.625C127.698 19.875 128.219 19.2604 128.219 18.7812C128.219 18.3021 127.604 18.0625 126.375 18.0625C125.146 18.0625 123.344 18.3542 120.969 18.9375C119.885 18.8958 118.948 18.5104 118.156 17.7812C117.469 17.1354 117.125 16.4896 117.125 15.8438C117.125 15.1771 117.312 14.5729 117.688 14.0312C118.062 13.4688 118.562 12.9479 119.188 12.4688C119.812 11.9896 120.542 11.5521 121.375 11.1562C123.417 10.1771 125.531 9.6875 127.719 9.6875C128.365 9.6875 128.99 9.75 129.594 9.875C130.094 9.875 130.385 10.0938 130.469 10.5312C130.552 10.9688 130.594 11.6875 130.594 12.6875C129.365 12.125 127.979 11.8438 126.438 11.8438C124.521 11.8438 122.938 12.2292 121.688 13C120.396 13.75 119.729 14.7292 119.688 15.9375C119.688 16.5208 120.115 16.8125 120.969 16.8125L123.25 16.5625C125.208 16.1458 126.781 15.9375 127.969 15.9375Z" fill="black"/>
</svg>
