<svg width="431" height="45" viewBox="0 0 431 45" fill="none" xmlns="http://www.w3.org/2000/svg">
<path d="M32.2402 20.8398H33.9355C34.6217 20.8398 35.2676 20.9004 35.873 21.0215C36.5189 21.1426 36.8418 21.5866 36.8418 22.3535C37.1243 23.9681 36.1758 24.7552 33.9961 24.7148C33.3906 24.6745 32.8255 24.6341 32.3008 24.5938C31.8164 24.5534 31.4128 24.5534 31.0898 24.5938C30.7669 24.5938 30.6257 24.6947 30.666 24.8965C31.0697 26.0671 31.4935 27.3789 31.9375 28.832C32.4219 30.2852 32.9466 31.7383 33.5117 33.1914C34.9648 36.7839 36.3372 39.3672 37.6289 40.9414C36.9427 41.7891 36.1354 42.4954 35.207 43.0605C34.319 43.6257 33.8346 43.9082 33.7539 43.9082C33.7135 43.9082 33.6732 43.888 33.6328 43.8477L25.0957 25.8652L8.56641 29.9219L7.96094 32.4648C6.79036 37.1068 5.47852 40.3359 4.02539 42.1523C3.7832 42.556 3.27865 42.5964 2.51172 42.2734C1.22005 41.7891 0.574219 41.3854 0.574219 41.0625C0.574219 40.9818 0.998047 39.8112 1.8457 37.5508C2.69336 35.2904 3.54102 33.0098 4.38867 30.709C5.27669 28.3678 6.1849 25.9258 7.11328 23.3828C8.08203 20.8398 8.99023 18.418 9.83789 16.1172C10.6855 13.8164 11.4525 11.7578 12.1387 9.94141C12.8249 8.08464 13.3092 6.7526 13.5918 5.94531C13.8743 5.09766 14.056 4.37109 14.1367 3.76562C14.2578 3.11979 14.4193 2.57487 14.6211 2.13086C15.0247 1.20247 16.0339 0.738281 17.6484 0.738281C19.3841 1.70703 20.7161 2.97852 21.6445 4.55273C22.6133 6.08659 23.4206 7.74154 24.0664 9.51758C24.7526 11.2936 25.4186 13.0898 26.0645 14.9062C26.7103 16.7227 27.5781 18.3776 28.668 19.8711C29.0312 20.4362 29.5762 20.7389 30.3027 20.7793C31.0293 20.8197 31.6751 20.8398 32.2402 20.8398ZM17.1035 7.76172C16.7806 10.224 16.054 12.7467 14.9238 15.3301C13.7936 17.9134 12.8854 19.9316 12.1992 21.3848C11.513 22.7975 10.9277 24.1094 10.4434 25.3203C13.1882 25.3203 16.5586 24.513 20.5547 22.8984C21.5638 22.4544 22.5326 22.0508 23.4609 21.6875C21.5638 13.5742 19.4447 8.93229 17.1035 7.76172ZM45.3789 42.0312C43.724 42.7174 42.6139 43.0605 42.0488 43.0605C41.5241 43.0605 41.1608 43 40.959 42.8789C40.7572 42.7578 40.5352 42.4753 40.293 42.0312C40.293 40.6992 40.3333 39.0241 40.4141 37.0059C40.5352 34.9876 40.6361 32.8281 40.7168 30.5273C40.7975 28.2266 40.8379 25.9056 40.8379 23.5645C40.8379 21.2233 40.7168 19.084 40.4746 17.1465C40.4746 15.8548 41.3424 15.209 43.0781 15.209C43.4818 15.209 43.7845 15.9355 43.9863 17.3887C44.2285 18.8418 44.39 19.972 44.4707 20.7793C44.5918 21.5866 44.6927 22.1719 44.7734 22.5352C45.8229 20.638 47.9017 19.1445 51.0098 18.0547C52.6647 17.5299 54.2188 17.2676 55.6719 17.2676C57.125 17.2676 58.3965 17.4492 59.4863 17.8125C60.6165 18.1354 61.5651 18.7611 62.332 19.6895C63.1393 20.5775 63.543 21.7682 63.543 23.2617C64.5924 21.2839 66.9538 19.5078 70.627 17.9336C73.9772 16.4401 76.9844 15.6934 79.6484 15.6934C83.4831 15.6934 85.36 17.1465 85.2793 20.0527L86.5508 42.5762C86.5508 42.778 85.9655 42.9193 84.7949 43C82.5345 43.1615 81.4043 42.9596 81.4043 42.3945C81.3639 41.5872 81.3438 40.7799 81.3438 39.9727L81.6465 30.2246C81.6465 25.6634 81.2025 22.0508 80.3145 19.3867C77.6504 19.5885 75.5918 20.0326 74.1387 20.7188C72.7259 21.3646 71.4746 22.1921 70.3848 23.2012C69.2949 24.1699 68.3262 25.4818 67.4785 27.1367C65.5814 30.8503 64.6328 35.7747 64.6328 41.9102C64.3906 42.7578 63.6035 43.1816 62.2715 43.1816C61.3835 43.1816 60.6569 43.0404 60.0918 42.7578C59.5267 42.4349 59.3047 42.1523 59.4258 41.9102C60.1927 37.6315 60.5762 34.3014 60.5762 31.9199C60.5762 30.0228 60.3743 28.2266 59.9707 26.5312C59.6074 24.7956 59.1432 22.8177 58.5781 20.5977C52.7656 20.5977 48.8503 22.9186 46.832 27.5605C45.944 29.6191 45.4395 31.5566 45.3184 33.373C45.2376 35.1491 45.1973 36.6829 45.1973 37.9746C45.1973 39.2259 45.2578 40.5781 45.3789 42.0312ZM100.961 38.7617C104.513 38.7617 109.861 37.1471 117.006 33.918C117.45 33.918 117.813 34.0794 118.096 34.4023C118.378 34.6849 118.52 35.028 118.52 35.4316C116.905 38.1764 113.817 40.3158 109.256 41.8496C104.695 43.3835 100.436 43.6458 96.4805 42.6367C92 41.4661 89.2754 38.9434 88.3066 35.0684C88.2259 34.3014 88.1855 33.2721 88.1855 31.9805C88.1855 30.6888 88.5085 28.9935 89.1543 26.8945C89.8405 24.7552 90.9909 22.737 92.6055 20.8398C94.2201 18.9427 96.1172 17.4492 98.2969 16.3594C100.477 15.2695 102.798 14.7246 105.26 14.7246C107.601 14.7246 110.225 15.5319 113.131 17.1465C114.503 17.9134 115.593 18.7812 116.4 19.75C117.208 20.7188 117.611 21.7077 117.611 22.7168C117.611 22.9993 117.591 23.2819 117.551 23.5645C117.47 26.0267 116.279 27.5807 113.979 28.2266C112.969 28.5091 111.799 28.6504 110.467 28.6504L101.748 28.2871C98.8418 28.2871 96.6217 28.9128 95.0879 30.1641C94.1999 30.8503 93.5742 31.8796 93.2109 33.252C94.2201 36.9251 96.8034 38.7617 100.961 38.7617ZM111.738 20.0527C110.85 19.4069 109.922 18.9427 108.953 18.6602C107.984 18.3776 107.177 18.2363 106.531 18.2363C105.885 18.2363 104.836 18.4583 103.383 18.9023C101.93 19.306 100.638 19.7702 99.5078 20.2949C96.7227 21.5866 95.3301 22.9388 95.3301 24.3516C98.5592 24.6341 100.981 24.7754 102.596 24.7754C107.076 24.7754 110.104 24.3919 111.678 23.625C112.646 23.2214 113.131 22.7168 113.131 22.1113C113.131 21.3848 112.667 20.6986 111.738 20.0527ZM123.242 19.5078C123.161 17.3281 123.081 15.3906 123 13.6953C122.919 11.9596 122.859 10.6882 122.818 9.88086C122.818 9.0332 122.495 6.99479 121.85 3.76562C122.213 3.28125 122.556 2.81706 122.879 2.37305C123.242 1.92904 123.747 1.70703 124.393 1.70703C125.805 1.70703 126.895 7.66081 127.662 19.5684C128.066 26.4707 128.268 33.373 128.268 40.2754C128.268 42.1322 126.976 43.0605 124.393 43.0605L123.908 43C123.908 40.901 123.848 38.2168 123.727 34.9473C123.605 31.6777 123.505 28.832 123.424 26.4102C123.383 23.9883 123.323 21.6875 123.242 19.5078ZM137.35 14.543C137.874 22.0911 138.318 30.8301 138.682 40.7598C138.439 42.0111 137.471 42.6367 135.775 42.6367C135.331 42.6367 134.867 42.556 134.383 42.3945C133.939 42.1927 133.656 41.9303 133.535 41.6074V14.543H137.35ZM131.719 6.30859C131.719 4.89583 132.546 4.18945 134.201 4.18945C135.291 4.18945 136.179 4.43164 136.865 4.91602C136.986 5.36003 137.047 5.80404 137.047 6.24805C137.047 6.65169 136.885 7.05534 136.562 7.45898C136.24 7.86263 135.755 8.06445 135.109 8.06445C134.464 8.06445 133.818 7.92318 133.172 7.64062C132.526 7.31771 132.042 6.8737 131.719 6.30859ZM165.08 32.9492C162.053 37.7122 158.016 40.6589 152.971 41.7891C151.8 42.0312 150.73 42.1523 149.762 42.1523C148.833 42.1523 148.046 42.1523 147.4 42.1523C146.795 42.112 146.109 42.0111 145.342 41.8496C144.575 41.6882 143.868 41.4258 143.223 41.0625C141.729 40.2148 140.982 39.0241 140.982 37.4902C140.821 36.7637 140.74 35.9564 140.74 35.0684C140.74 34.14 140.942 32.929 141.346 31.4355C141.749 29.9421 142.476 28.3275 143.525 26.5918C144.615 24.8561 145.927 23.2617 147.461 21.8086C150.65 18.7409 154.101 16.763 157.814 15.875C158.904 15.6328 159.893 15.5117 160.781 15.5117C161.71 15.5117 162.537 15.5723 163.264 15.6934C165.605 15.6934 167.179 17.2878 167.986 20.4766C168.511 22.4948 168.814 25.3203 168.895 28.9531C169.016 32.5456 169.117 35.3307 169.197 37.3086C169.318 39.2461 169.581 41.0221 169.984 42.6367H166.412C166.251 41.5469 166.13 40.5781 166.049 39.7305C165.968 38.8828 165.887 38.0957 165.807 37.3691C165.605 35.6738 165.363 34.2005 165.08 32.9492ZM164.838 23.5645C164.838 21.2233 163.688 20.0527 161.387 20.0527C161.104 20.0124 160.822 19.9922 160.539 19.9922C157.592 19.9922 154.484 21.4049 151.215 24.2305C149.681 25.5221 148.369 26.9753 147.279 28.5898C145.665 30.8906 144.857 32.9492 144.857 34.7656C144.857 37.1471 146.23 38.5599 148.975 39.0039C152.607 38.9232 156.079 37.2682 159.389 34.0391C160.801 32.6263 161.972 31.0924 162.9 29.4375C164.192 27.2174 164.838 25.2598 164.838 23.5645ZM201.711 32.9492C199.451 32.6263 198.32 32.1016 198.32 31.375C198.32 30.8503 198.704 30.2448 199.471 29.5586C200.238 28.8724 201.005 28.166 201.771 27.4395C201.771 25.0176 201.408 22.3132 200.682 19.3262C199.955 16.2988 199.43 13.9577 199.107 12.3027C198.785 10.6478 198.623 9.13411 198.623 7.76172C198.623 6.38932 198.825 5.52148 199.229 5.1582C199.673 4.79492 200.298 4.61328 201.105 4.61328C201.913 4.61328 202.438 4.73438 202.68 4.97656C202.922 5.17839 203.083 5.44076 203.164 5.76367C203.245 6.08659 203.285 6.42969 203.285 6.79297C203.326 7.15625 203.406 7.49935 203.527 7.82227C203.729 8.58919 204.355 8.97266 205.404 8.97266C208.109 8.93229 210.813 8.71029 213.518 8.30664C216.222 7.86263 218.906 7.41862 221.57 6.97461C226.898 6.08659 230.632 5.64258 232.771 5.64258C234.951 5.64258 236.667 5.70312 237.918 5.82422C237.958 6.59115 238.039 7.25716 238.16 7.82227C238.281 8.38737 238.342 8.85156 238.342 9.21484C238.342 9.90104 237.676 10.1432 236.344 9.94141C215.233 10.7083 204.678 12.2826 204.678 14.6641C204.678 17.2878 204.859 19.5482 205.223 21.4453C205.586 23.3021 205.848 24.4727 206.01 24.957C206.212 25.4414 206.434 25.6836 206.676 25.6836C208.977 25.6836 211.298 25.4818 213.639 25.0781C216.02 24.6745 218.382 24.2507 220.723 23.8066C223.104 23.3223 225.486 22.8783 227.867 22.4746C230.249 22.071 232.59 21.8691 234.891 21.8691C234.931 21.8691 234.951 22.0306 234.951 22.3535C234.951 22.6361 234.931 22.959 234.891 23.3223C234.77 24.291 234.77 24.7754 234.891 24.7754C233.155 25.7441 230.007 26.5312 225.445 27.1367C223.467 27.4193 221.449 27.6816 219.391 27.9238C217.332 28.166 215.435 28.4284 213.699 28.7109C209.703 29.276 207.382 30.0228 206.736 30.9512L206.07 42.8184C205.626 43.2624 205.122 43.4844 204.557 43.4844L202.316 43.3027C202.115 43.3027 201.913 43.3027 201.711 43.3027V32.9492ZM241.672 19.5078C241.591 17.3281 241.51 15.3906 241.43 13.6953C241.349 11.9596 241.288 10.6882 241.248 9.88086C241.248 9.0332 240.925 6.99479 240.279 3.76562C240.643 3.28125 240.986 2.81706 241.309 2.37305C241.672 1.92904 242.176 1.70703 242.822 1.70703C244.235 1.70703 245.325 7.66081 246.092 19.5684C246.495 26.4707 246.697 33.373 246.697 40.2754C246.697 42.1322 245.406 43.0605 242.822 43.0605L242.338 43C242.338 40.901 242.277 38.2168 242.156 34.9473C242.035 31.6777 241.934 28.832 241.854 26.4102C241.813 23.9883 241.753 21.6875 241.672 19.5078ZM251.844 31.4961C251.844 26.7331 253.902 22.8984 258.02 19.9922C261.289 17.6914 265.225 16.2988 269.826 15.8145C270.068 15.8145 270.633 15.8145 271.521 15.8145C272.41 15.8145 273.6 16.0768 275.094 16.6016C278.404 17.7318 280.664 19.7298 281.875 22.5957C282.359 23.7259 282.602 24.6947 282.602 25.502C282.602 26.2689 282.581 26.8138 282.541 27.1367C282.541 32.1823 280.624 36.1582 276.789 39.0645C273.237 41.7285 268.797 43.0605 263.469 43.0605C259.634 43.0605 256.728 42.1725 254.75 40.3965C252.812 38.6204 251.844 35.6536 251.844 31.4961ZM256.021 32.9492C256.021 35.4518 256.688 37.1471 258.02 38.0352C259.029 38.681 260.724 39.0039 263.105 39.0039C265.487 39.0039 267.586 38.8223 269.402 38.459C271.219 38.0957 272.833 37.4701 274.246 36.582C277.273 34.6445 278.787 31.6374 278.787 27.5605C278.787 25.1387 278.141 23.1608 276.85 21.627C275.437 19.972 273.58 19.1445 271.279 19.1445C269.705 19.4271 268.111 19.7298 266.496 20.0527C264.922 20.3757 263.428 21.0013 262.016 21.9297C258.948 23.9076 256.95 27.5807 256.021 32.9492ZM308.213 26.2891C307.325 29.2357 306.578 31.9603 305.973 34.4629C305.408 36.9655 304.842 39.0443 304.277 40.6992C303.389 43.0807 302.38 44.2715 301.25 44.2715C300.645 44.2715 299.958 43.9889 299.191 43.4238C297.335 41.446 294.711 37.0664 291.32 30.2852C288.01 23.6654 286.355 19.528 286.355 17.873C286.355 17.1465 286.577 16.7025 287.021 16.541C287.465 16.3392 287.97 16.319 288.535 16.4805C289.908 16.8841 290.876 17.5098 291.441 18.3574C291.724 18.7611 292.067 19.4674 292.471 20.4766L293.984 24.2305C295.68 28.4688 297.355 32.3438 299.01 35.8555C299.898 34.4831 300.745 32.707 301.553 30.5273L303.43 25.3203C305.044 20.7591 306.497 18.4382 307.789 18.3574C308.798 17.7116 311.826 21.2839 316.871 29.0742C319.01 32.3841 320.342 34.362 320.867 35.0078C321.23 35.0078 321.654 33.7969 322.139 31.375C322.663 28.9531 323.107 26.9147 323.471 25.2598C323.874 23.5645 324.359 21.9902 324.924 20.5371C326.256 17.1465 327.79 15.4512 329.525 15.4512C330.09 15.4512 330.474 15.653 330.676 16.0566C330.918 16.4199 331.039 16.7227 331.039 16.9648C331.039 17.207 331.039 17.3887 331.039 17.5098C330.555 18.8822 330.05 20.4564 329.525 22.2324C329.001 23.9681 328.436 25.7643 327.83 27.6211C327.265 29.4375 326.68 31.2539 326.074 33.0703C325.509 34.8464 324.944 36.4609 324.379 37.9141C323.047 41.0625 321.937 42.7578 321.049 43C320.363 43.3229 319.253 42.5358 317.719 40.6387C317.033 39.7507 316.306 38.7012 315.539 37.4902C314.772 36.2793 313.965 35.028 313.117 33.7363C311.059 30.5072 309.424 28.0247 308.213 26.2891ZM347.689 38.7617C351.242 38.7617 356.59 37.1471 363.734 33.918C364.178 33.918 364.542 34.0794 364.824 34.4023C365.107 34.6849 365.248 35.028 365.248 35.4316C363.633 38.1764 360.546 40.3158 355.984 41.8496C351.423 43.3835 347.165 43.6458 343.209 42.6367C338.729 41.4661 336.004 38.9434 335.035 35.0684C334.954 34.3014 334.914 33.2721 334.914 31.9805C334.914 30.6888 335.237 28.9935 335.883 26.8945C336.569 24.7552 337.719 22.737 339.334 20.8398C340.949 18.9427 342.846 17.4492 345.025 16.3594C347.205 15.2695 349.526 14.7246 351.988 14.7246C354.329 14.7246 356.953 15.5319 359.859 17.1465C361.232 17.9134 362.322 18.7812 363.129 19.75C363.936 20.7188 364.34 21.7077 364.34 22.7168C364.34 22.9993 364.32 23.2819 364.279 23.5645C364.199 26.0267 363.008 27.5807 360.707 28.2266C359.698 28.5091 358.527 28.6504 357.195 28.6504L348.477 28.2871C345.57 28.2871 343.35 28.9128 341.816 30.1641C340.928 30.8503 340.303 31.8796 339.939 33.252C340.949 36.9251 343.532 38.7617 347.689 38.7617ZM358.467 20.0527C357.579 19.4069 356.65 18.9427 355.682 18.6602C354.713 18.3776 353.906 18.2363 353.26 18.2363C352.614 18.2363 351.564 18.4583 350.111 18.9023C348.658 19.306 347.367 19.7702 346.236 20.2949C343.451 21.5866 342.059 22.9388 342.059 24.3516C345.288 24.6341 347.71 24.7754 349.324 24.7754C353.805 24.7754 356.832 24.3919 358.406 23.625C359.375 23.2214 359.859 22.7168 359.859 22.1113C359.859 21.3848 359.395 20.6986 358.467 20.0527ZM398.609 20.9004C396.914 19.6895 394.734 19.084 392.07 19.084C389.568 19.084 387.247 19.5482 385.107 20.4766C381.071 22.1719 378.306 24.3516 376.812 27.0156C376.167 28.2266 375.844 29.5182 375.844 30.8906C375.844 31.1328 375.844 31.819 375.844 32.9492C375.844 34.0391 376.046 35.5326 376.449 37.4297C376.853 39.2865 377.055 41.1836 377.055 43.1211C376.207 43.1615 375.521 43.2624 374.996 43.4238C374.471 43.5853 374.027 43.666 373.664 43.666C373.301 43.666 372.978 43.5046 372.695 43.1816C372.453 42.8587 372.171 42.2331 371.848 41.3047C371.807 41.0625 371.727 40.3763 371.605 39.2461C371.484 38.1159 371.323 36.7435 371.121 35.1289C370.96 33.5143 370.758 31.7585 370.516 29.8613C370.314 27.9238 370.112 26.0267 369.91 24.1699C369.466 20.1335 369.123 17.1667 368.881 15.2695C368.881 14.3008 369.587 13.8164 371 13.8164C371.848 13.8164 372.514 14.1797 372.998 14.9062C373.482 15.5924 373.866 16.3997 374.148 17.3281C374.431 18.2161 374.613 19.1042 374.693 19.9922C374.814 20.8802 374.915 21.5059 374.996 21.8691C380.324 17.1061 386.944 14.7246 394.855 14.7246C395.743 14.7246 396.672 14.7448 397.641 14.7852C397.883 14.7448 398.186 14.7246 398.549 14.7246C398.912 14.7246 399.275 14.9668 399.639 15.4512C400.083 16.0163 400.305 16.7025 400.305 17.5098C400.305 19.528 399.74 20.6582 398.609 20.9004ZM423.797 27.3789C428.237 27.3789 430.457 28.5091 430.457 30.7695C430.457 32.4648 429.226 34.4427 426.764 36.7031C423.09 40.0534 418.146 42.7376 411.93 44.7559C411.647 44.7559 411.324 44.4733 410.961 43.9082C410.638 43.3431 410.376 42.9193 410.174 42.6367C410.012 42.3138 409.891 42.112 409.811 42.0312C414.452 40.4974 418.267 38.6406 421.254 36.4609C423.272 35.0078 424.281 33.8171 424.281 32.8887C424.281 31.9603 423.09 31.4961 420.709 31.4961C418.327 31.4961 414.836 32.0612 410.234 33.1914C408.135 33.1107 406.319 32.3639 404.785 30.9512C403.453 29.6999 402.787 28.4486 402.787 27.1973C402.787 25.9056 403.15 24.735 403.877 23.6855C404.604 22.5957 405.572 21.5866 406.783 20.6582C407.994 19.7298 409.407 18.8822 411.021 18.1152C414.977 16.2181 419.074 15.2695 423.312 15.2695C424.564 15.2695 425.775 15.3906 426.945 15.6328C427.914 15.6328 428.479 16.0566 428.641 16.9043C428.802 17.752 428.883 19.1445 428.883 21.082C426.501 19.9922 423.817 19.4473 420.83 19.4473C417.117 19.4473 414.049 20.194 411.627 21.6875C409.124 23.1406 407.833 25.0378 407.752 27.3789C407.752 28.5091 408.579 29.0742 410.234 29.0742L414.654 28.5898C418.449 27.7826 421.496 27.3789 423.797 27.3789Z" fill="#161616"/>
</svg>
